<svg width="113" height="88" viewBox="0 0 113 88" fill="none" xmlns="http://www.w3.org/2000/svg">
<path d="M104.186 85.3632C109.841 80.5733 113.276 73.0067 112.375 65.6405C111.474 58.2743 105.895 51.5025 98.6583 49.9383C91.4215 48.3741 83.1721 52.7041 80.9741 59.7908C79.7644 46.128 78.3704 31.8927 71.1242 20.2576C64.563 9.72224 53.1988 2.18383 40.8826 0.835184C28.5663 -0.513458 15.599 4.58017 7.91778 14.3251C0.2366 24.0701 -1.64412 38.2372 3.73558 49.4252C7.69862 57.6671 14.9999 63.8007 22.6499 68.7908C47.0559 84.7108 77.3315 90.0897 106.139 85.8397L104.186 85.3632Z" fill="#CFDEF3"/>
</svg>
