<svg width="22" height="12" viewBox="0 0 22 12" fill="none" xmlns="http://www.w3.org/2000/svg">
<path fill-rule="evenodd" clip-rule="evenodd" d="M18.6817 2.11577H2.73025C2.44333 2.11577 2.21074 2.34836 2.21074 2.63528V9.11148C2.21074 9.3984 2.44333 9.63099 2.73025 9.63099H18.6817C18.9686 9.63099 19.2012 9.3984 19.2012 9.11148V2.63528C19.2012 2.34836 18.9686 2.11577 18.6817 2.11577ZM2.73025 0.315186C1.4489 0.315186 0.410156 1.35393 0.410156 2.63528V9.11148C0.410156 10.3928 1.4489 11.4316 2.73025 11.4316H18.6817C19.963 11.4316 21.0017 10.3928 21.0017 9.11148V2.63528C21.0017 1.35393 19.963 0.315186 18.6817 0.315186H2.73025Z" fill="#0688FF"/>
</svg>
