<svg width="133" height="133" viewBox="0 0 133 133" fill="none" xmlns="http://www.w3.org/2000/svg">
<path d="M66.9356 132.779C53.8769 132.779 41.1116 128.897 30.2537 121.624C19.3958 114.351 10.9332 104.014 5.93584 91.9198C0.938517 79.8255 -0.369007 66.5173 2.17861 53.678C4.72622 40.8388 11.0146 29.0452 20.2484 19.7887C29.4823 10.5321 41.2469 4.22829 54.0546 1.6744C66.8624 -0.879478 80.1379 0.431264 92.2025 5.44088C104.267 10.4505 114.579 18.934 121.834 29.8186C129.089 40.7032 132.961 53.4999 132.961 66.5907C132.941 84.1388 125.979 100.962 113.601 113.371C101.223 125.779 84.4406 132.759 66.9356 132.779ZM66.9356 1.66334C54.1257 1.66334 41.6035 5.47127 30.9524 12.6056C20.3014 19.7399 11.9999 29.8802 7.09775 41.7441C2.19562 53.608 0.91299 66.6627 3.41208 79.2574C5.91117 91.8521 12.0797 103.421 21.1377 112.501C30.1957 121.582 41.7362 127.765 54.3 130.271C66.8637 132.776 79.8864 131.49 91.7212 126.576C103.556 121.662 113.671 113.34 120.788 102.662C127.905 91.9852 131.704 79.4321 131.704 66.5907C131.684 49.3769 124.854 32.8736 112.712 20.7016C100.57 8.52959 84.1072 1.6828 66.9356 1.66334Z" fill="#3F3D56"/>
</svg>
